<svg width="53" height="53" viewBox="0 0 53 53" fill="none" xmlns="http://www.w3.org/2000/svg">
<ellipse cx="26.5" cy="26.0923" rx="26.5" ry="26.0923" fill="#DCF2EE"/>
<path d="M24.6047 26.336L22.1502 23.8815L20.814 25.2178L24.6047 29.0085L32.1861 21.427L30.8499 20.0908L24.6047 26.336Z" fill="#28574E"/>
<path d="M26.4998 39.0443L20.647 35.9236C18.9783 35.036 17.5828 33.7108 16.6105 32.0901C15.6381 30.4694 15.1255 28.6145 15.1277 26.7244V14.4046C15.1277 13.902 15.3274 13.4199 15.6828 13.0644C16.0383 12.709 16.5204 12.5093 17.023 12.5093H35.9766C36.4793 12.5093 36.9614 12.709 37.3168 13.0644C37.6723 13.4199 37.872 13.902 37.872 14.4046V26.7244C37.8742 28.6145 37.3616 30.4694 36.3892 32.0901C35.4168 33.7108 34.0214 35.036 32.3527 35.9236L26.4998 39.0443ZM17.023 14.4046V26.7244C17.022 28.2708 17.4418 29.7882 18.2375 31.1141C19.0332 32.44 20.1747 33.5244 21.5397 34.2509L26.4998 36.8959L31.46 34.2519C32.8251 33.5252 33.9667 32.4407 34.7624 31.1147C35.5581 29.7886 35.9778 28.2709 35.9766 26.7244V14.4046H17.023Z" fill="#28574E"/>
</svg>
