<svg width="113" height="19" viewBox="0 0 113 19" fill="none" xmlns="http://www.w3.org/2000/svg">
<path d="M21.4102 1.36719V2.10547H19.2227V17.0352H20.6719C21.0547 17.0716 21.3008 17.3177 21.4102 17.7734H13.3438V17.0352H15.5312V4.04688L9.65234 18.0469H9.16016L3.33594 6.72656V17.0352H4.78516C5.16797 17.0716 5.41406 17.3177 5.52344 17.7734H0V17.0352H2.1875V2.10547H0V1.36719H4.89453L10.6367 13.125L15.5312 1.36719H21.4102ZM28.6289 6.31641C27.1706 6.37109 26.3776 7.91146 26.25 10.9375L28 11.0195C28.7292 11.056 29.276 11.0104 29.6406 10.8828C30.151 10.6823 30.4062 10.1536 30.4062 9.29688C30.388 7.34635 29.7956 6.35286 28.6289 6.31641ZM33.7422 14.957C33.6328 15.2487 33.487 15.5312 33.3047 15.8047C32.375 17.2995 30.8438 18.0469 28.7109 18.0469C27.5078 18.0469 26.4323 17.8008 25.4844 17.3086C23.4974 16.2695 22.5039 14.4284 22.5039 11.7852C22.5039 10.1628 22.9414 8.80469 23.8164 7.71094C24.9648 6.30729 26.569 5.60547 28.6289 5.60547C29.7591 5.60547 30.7708 5.79688 31.6641 6.17969C33.25 6.89062 34.043 8.02083 34.043 9.57031C34.043 9.88021 33.9883 10.1628 33.8789 10.418C33.4049 11.4388 31.7005 11.9036 28.7656 11.8125L26.25 11.7305C26.2682 12.7878 26.3594 13.6992 26.5234 14.4648C26.9427 16.3242 27.8815 17.2539 29.3398 17.2539C29.7956 17.2539 30.2422 17.1719 30.6797 17.0078C31.7734 16.6068 32.5755 15.8503 33.0859 14.7383L33.7422 14.957ZM45.0078 17.7734L44.625 15.2031C44.5339 15.4401 44.4245 15.668 44.2969 15.8867C43.4766 17.3268 42.2188 18.0469 40.5234 18.0469C39.5026 18.0469 38.5729 17.737 37.7344 17.1172C36.2578 16.0417 35.5195 14.3737 35.5195 12.1133C35.5195 10.2904 35.9935 8.77734 36.9414 7.57422C38.0352 6.24349 39.4479 5.57812 41.1797 5.57812C42.474 5.57812 43.5859 5.97917 44.5156 6.78125V0.710938H42.0273V0H47.9883V17.0352H49.2461C49.3737 17.0352 49.4831 17.0443 49.5742 17.0625C49.793 17.1172 49.9023 17.3542 49.9023 17.7734H45.0078ZM39.2656 11.7852C39.2656 12.4779 39.3112 13.1068 39.4023 13.6719C39.7122 15.75 40.5052 16.7891 41.7812 16.7891C42.1641 16.7891 42.5195 16.6888 42.8477 16.4883C43.9961 15.7409 44.5703 14 44.5703 11.2656C44.5703 10.6458 44.5339 10.0625 44.4609 9.51562C44.151 7.49219 43.3398 6.48047 42.0273 6.48047C41.6628 6.48047 41.3164 6.57161 40.9883 6.75391C39.8398 7.44661 39.2656 9.1237 39.2656 11.7852ZM57.0664 17.0625C57.1758 17.0625 57.276 17.0716 57.3672 17.0898C57.6042 17.1263 57.7227 17.3542 57.7227 17.7734H50.9961V17.0625C51.2331 17.0625 51.4427 17.0443 51.625 17.0078C52.263 16.8984 52.582 16.4427 52.582 15.6406V6.72656H50.9961V6.01562H56.0547V17.0625H57.0664ZM56.3008 2.43359C56.3008 2.77995 56.2096 3.10807 56.0273 3.41797C55.6445 4.09245 55.0521 4.42969 54.25 4.42969C53.9219 4.42969 53.6029 4.34766 53.293 4.18359C52.582 3.81901 52.2266 3.23568 52.2266 2.43359C52.2266 2.08724 52.3086 1.75911 52.4727 1.44922C52.8737 0.738281 53.4661 0.382812 54.25 0.382812C54.5964 0.382812 54.9245 0.473958 55.2344 0.65625C55.9453 1.03906 56.3008 1.63151 56.3008 2.43359Z" fill="#141313"/>
<path d="M73.1719 16.707C71.4401 17.6003 69.6354 18.0469 67.7578 18.0469C65.1146 18.0469 62.9818 17.1992 61.3594 15.5039C59.8464 13.8997 59.0898 11.9219 59.0898 9.57031C59.0898 7.58333 59.6641 5.82422 60.8125 4.29297C62.4349 2.16016 64.7773 1.09375 67.8398 1.09375C69.7539 1.09375 71.5039 1.52214 73.0898 2.37891C73.0716 2.08724 73.0807 1.85026 73.1172 1.66797C73.2083 1.3763 73.4909 1.23047 73.9648 1.23047L74.0469 6.61719H73.0898C72.7982 5.5599 72.4609 4.69401 72.0781 4.01953C71.2578 2.61589 69.9909 1.91406 68.2773 1.91406C65.0326 1.93229 63.401 4.4388 63.3828 9.43359C63.3828 10.9648 63.4922 12.25 63.7109 13.2891C64.2943 15.9141 65.7435 17.2266 68.0586 17.2266C68.6419 17.2266 69.1706 17.1628 69.6445 17.0352C71.3581 16.5612 72.5521 15.0573 73.2266 12.5234H74.1289V17.9102C73.9284 17.9102 73.7643 17.8919 73.6367 17.8555C73.3086 17.7826 73.1536 17.3997 73.1719 16.707ZM85.2852 18.0469C83.8268 17.9557 82.9062 17.1263 82.5234 15.5586C82.4323 15.8138 82.3138 16.0599 82.168 16.2969C81.4388 17.4635 80.2995 18.0469 78.75 18.0469C78.2396 18.0469 77.7747 17.9831 77.3555 17.8555C75.9336 17.3997 75.2227 16.3607 75.2227 14.7383C75.2409 12.3503 77.5924 11.1107 82.2773 11.0195V9.24219C82.2773 8.71354 82.2409 8.25781 82.168 7.875C81.9857 6.83594 81.4661 6.31641 80.6094 6.31641C80.3542 6.31641 80.1263 6.36198 79.9258 6.45312C79.6159 6.63542 79.3607 7.09115 79.1602 7.82031C79.0872 8.07552 79.0326 8.25781 78.9961 8.36719C78.7227 9.13281 78.194 9.51562 77.4102 9.51562C77.2279 9.51562 77.0547 9.48828 76.8906 9.43359C76.2161 9.2513 75.8789 8.80469 75.8789 8.09375C75.8789 7.78385 75.9609 7.49219 76.125 7.21875C76.763 6.14323 78.3216 5.60547 80.8008 5.60547C81.4388 5.60547 82.0312 5.66927 82.5781 5.79688C84.6927 6.32552 85.75 7.72917 85.75 10.0078V15.7227C85.75 16.5977 85.9505 17.0534 86.3516 17.0898C86.8802 17.0716 87.1992 16.4336 87.3086 15.1758L88.0195 15.2031C87.9648 15.7682 87.8828 16.2331 87.7734 16.5977C87.4453 17.5638 86.6159 18.0469 85.2852 18.0469ZM80.1719 16.8711C80.2995 16.8711 80.4453 16.8438 80.6094 16.7891C81.375 16.4974 81.931 15.7135 82.2773 14.4375V11.7852C81.457 11.8216 80.7826 11.9219 80.2539 12.0859C79.2695 12.4505 78.7773 13.2344 78.7773 14.4375C78.7956 16.0234 79.2604 16.8346 80.1719 16.8711ZM95.7852 17.0625C95.8945 17.0625 95.9948 17.0716 96.0859 17.0898C96.3229 17.1263 96.4414 17.3542 96.4414 17.7734H88.7031V17.0625C88.9401 17.0625 89.1497 17.0443 89.332 17.0078C89.9701 16.8984 90.2891 16.4427 90.2891 15.6406V6.72656H88.7031V6.01562H93.4883L93.6797 8.55859C93.8802 8.04818 94.1719 7.57422 94.5547 7.13672C95.4115 6.24349 96.4049 5.79688 97.5352 5.79688C97.7721 5.79688 98 5.82422 98.2188 5.87891C99.112 6.11589 99.5586 6.6901 99.5586 7.60156C99.5586 7.85677 99.5039 8.10286 99.3945 8.33984C99.0846 9.03255 98.5651 9.37891 97.8359 9.37891C97.6172 9.37891 97.4167 9.35156 97.2344 9.29688C96.8516 9.15104 96.4961 8.78646 96.168 8.20312C95.931 7.78385 95.7122 7.57422 95.5117 7.57422C95.4023 7.57422 95.2839 7.60156 95.1562 7.65625C94.3542 8.07552 93.8893 9.24219 93.7617 11.1562V17.0625H95.7852ZM106.641 6.31641C105.182 6.37109 104.389 7.91146 104.262 10.9375L106.012 11.0195C106.741 11.056 107.288 11.0104 107.652 10.8828C108.163 10.6823 108.418 10.1536 108.418 9.29688C108.4 7.34635 107.807 6.35286 106.641 6.31641ZM111.754 14.957C111.645 15.2487 111.499 15.5312 111.316 15.8047C110.387 17.2995 108.855 18.0469 106.723 18.0469C105.52 18.0469 104.444 17.8008 103.496 17.3086C101.509 16.2695 100.516 14.4284 100.516 11.7852C100.516 10.1628 100.953 8.80469 101.828 7.71094C102.977 6.30729 104.581 5.60547 106.641 5.60547C107.771 5.60547 108.783 5.79688 109.676 6.17969C111.262 6.89062 112.055 8.02083 112.055 9.57031C112.055 9.88021 112 10.1628 111.891 10.418C111.417 11.4388 109.712 11.9036 106.777 11.8125L104.262 11.7305C104.28 12.7878 104.371 13.6992 104.535 14.4648C104.954 16.3242 105.893 17.2539 107.352 17.2539C107.807 17.2539 108.254 17.1719 108.691 17.0078C109.785 16.6068 110.587 15.8503 111.098 14.7383L111.754 14.957Z" fill="#28574E"/>
</svg>
