<svg width="184" height="38" viewBox="0 0 184 38" fill="none" xmlns="http://www.w3.org/2000/svg">
<rect width="40" height="38" rx="7.5" fill="#28574E"/>
<path d="M19.5 17.1248V20.6248M21.25 18.8748H17.75M23 12.7498V10.9998C23 10.5356 22.8156 10.0905 22.4874 9.76232C22.1592 9.43413 21.7141 9.24976 21.25 9.24976H17.75C17.2859 9.24976 16.8408 9.43413 16.5126 9.76232C16.1844 10.0905 16 10.5356 16 10.9998V12.7498M24.75 12.7498V24.9998M14.25 12.7498V24.9998M12.5 12.7498H26.5C27.4665 12.7498 28.25 13.5333 28.25 14.4998V23.2498C28.25 24.2163 27.4665 24.9998 26.5 24.9998H12.5C11.5335 24.9998 10.75 24.2163 10.75 23.2498V14.4998C10.75 13.5333 11.5335 12.7498 12.5 12.7498Z" stroke="white" stroke-width="1.3125" stroke-linecap="round" stroke-linejoin="round"/>
<path d="M68.0234 10.0938V10.832H65.8359V25.7617H67.2852C67.668 25.7982 67.9141 26.0443 68.0234 26.5H59.957V25.7617H62.1445V12.7734L56.2656 26.7734H55.7734L49.9492 15.4531V25.7617H51.3984C51.7812 25.7982 52.0273 26.0443 52.1367 26.5H46.6133V25.7617H48.8008V10.832H46.6133V10.0938H51.5078L57.25 21.8516L62.1445 10.0938H68.0234ZM75.2422 15.043C73.7839 15.0977 72.9909 16.638 72.8633 19.6641L74.6133 19.7461C75.3424 19.7826 75.8893 19.737 76.2539 19.6094C76.7643 19.4089 77.0195 18.8802 77.0195 18.0234C77.0013 16.0729 76.4089 15.0794 75.2422 15.043ZM80.3555 23.6836C80.2461 23.9753 80.1003 24.2578 79.918 24.5312C78.9883 26.026 77.457 26.7734 75.3242 26.7734C74.1211 26.7734 73.0456 26.5273 72.0977 26.0352C70.1107 24.9961 69.1172 23.1549 69.1172 20.5117C69.1172 18.8893 69.5547 17.5312 70.4297 16.4375C71.5781 15.0339 73.1823 14.332 75.2422 14.332C76.3724 14.332 77.3841 14.5234 78.2773 14.9062C79.8633 15.6172 80.6562 16.7474 80.6562 18.2969C80.6562 18.6068 80.6016 18.8893 80.4922 19.1445C80.0182 20.1654 78.3138 20.6302 75.3789 20.5391L72.8633 20.457C72.8815 21.5143 72.9727 22.4258 73.1367 23.1914C73.556 25.0508 74.4948 25.9805 75.9531 25.9805C76.4089 25.9805 76.8555 25.8984 77.293 25.7344C78.3867 25.3333 79.1888 24.5768 79.6992 23.4648L80.3555 23.6836ZM91.6211 26.5L91.2383 23.9297C91.1471 24.1667 91.0378 24.3945 90.9102 24.6133C90.0898 26.0534 88.832 26.7734 87.1367 26.7734C86.1159 26.7734 85.1862 26.4635 84.3477 25.8438C82.8711 24.7682 82.1328 23.1003 82.1328 20.8398C82.1328 19.0169 82.6068 17.5039 83.5547 16.3008C84.6484 14.9701 86.0612 14.3047 87.793 14.3047C89.0872 14.3047 90.1992 14.7057 91.1289 15.5078V9.4375H88.6406V8.72656H94.6016V25.7617H95.8594C95.987 25.7617 96.0964 25.7708 96.1875 25.7891C96.4062 25.8438 96.5156 26.0807 96.5156 26.5H91.6211ZM85.8789 20.5117C85.8789 21.2044 85.9245 21.8333 86.0156 22.3984C86.3255 24.4766 87.1185 25.5156 88.3945 25.5156C88.7773 25.5156 89.1328 25.4154 89.4609 25.2148C90.6094 24.4674 91.1836 22.7266 91.1836 19.9922C91.1836 19.3724 91.1471 18.7891 91.0742 18.2422C90.7643 16.2188 89.9531 15.207 88.6406 15.207C88.276 15.207 87.9297 15.2982 87.6016 15.4805C86.4531 16.1732 85.8789 17.8503 85.8789 20.5117ZM103.68 25.7891C103.789 25.7891 103.889 25.7982 103.98 25.8164C104.217 25.8529 104.336 26.0807 104.336 26.5H97.6094V25.7891C97.8464 25.7891 98.056 25.7708 98.2383 25.7344C98.8763 25.625 99.1953 25.1693 99.1953 24.3672V15.4531H97.6094V14.7422H102.668V25.7891H103.68ZM102.914 11.1602C102.914 11.5065 102.823 11.8346 102.641 12.1445C102.258 12.819 101.665 13.1562 100.863 13.1562C100.535 13.1562 100.216 13.0742 99.9062 12.9102C99.1953 12.5456 98.8398 11.9622 98.8398 11.1602C98.8398 10.8138 98.9219 10.4857 99.0859 10.1758C99.487 9.46484 100.079 9.10938 100.863 9.10938C101.21 9.10938 101.538 9.20052 101.848 9.38281C102.559 9.76562 102.914 10.3581 102.914 11.1602Z" fill="#141313"/>
<path d="M119.785 13.7852C119.785 14.1497 119.721 14.5234 119.594 14.9062C119.138 16.1823 118.09 17.0846 116.449 17.6133C116.887 17.668 117.306 17.75 117.707 17.8594C119.913 18.4427 121.016 19.7461 121.016 21.7695C121.016 22.681 120.742 23.5195 120.195 24.2852C119.083 25.7617 117.279 26.5 114.781 26.5H105.43V25.7617H107.617V10.832H105.43V10.0938H114.289C115.292 10.0938 116.185 10.2031 116.969 10.4219C118.846 10.9688 119.785 12.0898 119.785 13.7852ZM112.758 10.832H111.445V17.2305H112.977C113.305 17.2305 113.615 17.194 113.906 17.1211C115.182 16.7565 115.82 15.7174 115.82 14.0039C115.802 11.9258 114.781 10.8685 112.758 10.832ZM113.688 17.9961H111.445V25.7617H113.277C113.514 25.7617 113.751 25.7435 113.988 25.707C115.884 25.4336 116.832 24.0573 116.832 21.5781C116.832 21.0312 116.75 20.5208 116.586 20.0469C116.112 18.6797 115.146 17.9961 113.688 17.9961ZM129.328 25.7891C129.438 25.7891 129.538 25.7982 129.629 25.8164C129.866 25.8529 129.984 26.0807 129.984 26.5H122.246V25.7891C122.483 25.7891 122.693 25.7708 122.875 25.7344C123.513 25.625 123.832 25.1693 123.832 24.3672V15.4531H122.246V14.7422H127.031L127.223 17.2852C127.423 16.7747 127.715 16.3008 128.098 15.8633C128.954 14.9701 129.948 14.5234 131.078 14.5234C131.315 14.5234 131.543 14.5508 131.762 14.6055C132.655 14.8424 133.102 15.4167 133.102 16.3281C133.102 16.5833 133.047 16.8294 132.938 17.0664C132.628 17.7591 132.108 18.1055 131.379 18.1055C131.16 18.1055 130.96 18.0781 130.777 18.0234C130.395 17.8776 130.039 17.513 129.711 16.9297C129.474 16.5104 129.255 16.3008 129.055 16.3008C128.945 16.3008 128.827 16.3281 128.699 16.3828C127.897 16.8021 127.432 17.9688 127.305 19.8828V25.7891H129.328ZM139.992 25.7891C140.102 25.7891 140.202 25.7982 140.293 25.8164C140.53 25.8529 140.648 26.0807 140.648 26.5H133.922V25.7891C134.159 25.7891 134.368 25.7708 134.551 25.7344C135.189 25.625 135.508 25.1693 135.508 24.3672V15.4531H133.922V14.7422H138.98V25.7891H139.992ZM139.227 11.1602C139.227 11.5065 139.135 11.8346 138.953 12.1445C138.57 12.819 137.978 13.1562 137.176 13.1562C136.848 13.1562 136.529 13.0742 136.219 12.9102C135.508 12.5456 135.152 11.9622 135.152 11.1602C135.152 10.8138 135.234 10.4857 135.398 10.1758C135.799 9.46484 136.392 9.10938 137.176 9.10938C137.522 9.10938 137.85 9.20052 138.16 9.38281C138.871 9.76562 139.227 10.3581 139.227 11.1602ZM151.504 26.5L151.121 23.9297C151.03 24.1667 150.921 24.3945 150.793 24.6133C149.973 26.0534 148.715 26.7734 147.02 26.7734C145.999 26.7734 145.069 26.4635 144.23 25.8438C142.754 24.7682 142.016 23.1003 142.016 20.8398C142.016 19.0169 142.49 17.5039 143.438 16.3008C144.531 14.9701 145.944 14.3047 147.676 14.3047C148.97 14.3047 150.082 14.7057 151.012 15.5078V9.4375H148.523V8.72656H154.484V25.7617H155.742C155.87 25.7617 155.979 25.7708 156.07 25.7891C156.289 25.8438 156.398 26.0807 156.398 26.5H151.504ZM145.762 20.5117C145.762 21.2044 145.807 21.8333 145.898 22.3984C146.208 24.4766 147.001 25.5156 148.277 25.5156C148.66 25.5156 149.016 25.4154 149.344 25.2148C150.492 24.4674 151.066 22.7266 151.066 19.9922C151.066 19.3724 151.03 18.7891 150.957 18.2422C150.647 16.2188 149.836 15.207 148.523 15.207C148.159 15.207 147.812 15.2982 147.484 15.4805C146.336 16.1732 145.762 17.8503 145.762 20.5117ZM161.457 18.9531C161.457 20.2109 161.521 21.0859 161.648 21.5781C161.867 22.4167 162.423 22.8359 163.316 22.8359C163.863 22.8359 164.292 22.681 164.602 22.3711C165.039 21.8789 165.258 20.7122 165.258 18.8711C165.258 17.668 165.194 16.8112 165.066 16.3008C164.829 15.4622 164.255 15.043 163.344 15.043C162.779 15.043 162.35 15.207 162.059 15.5352C161.658 16.0091 161.457 17.1484 161.457 18.9531ZM163.453 14.332C164.729 14.332 165.805 14.6055 166.68 15.1523C166.753 14.9518 166.835 14.7513 166.926 14.5508C167.454 13.457 168.193 12.9102 169.141 12.9102C169.487 12.9102 169.806 12.974 170.098 13.1016C170.736 13.375 171.055 13.8398 171.055 14.4961C171.055 14.5872 171.046 14.6784 171.027 14.7695C170.9 15.2799 170.562 15.5352 170.016 15.5352C169.779 15.5352 169.523 15.4258 169.25 15.207C168.904 14.8971 168.612 14.7422 168.375 14.7422C167.938 14.7604 167.555 15.0247 167.227 15.5352C168.211 16.3919 168.712 17.4857 168.73 18.8164C168.73 19.8008 168.439 20.694 167.855 21.4961C166.835 22.8633 165.322 23.5469 163.316 23.5469L160.391 23.5195C160.318 23.5195 160.245 23.5286 160.172 23.5469C159.716 23.6016 159.488 23.8385 159.488 24.2578C159.488 24.3125 159.497 24.3672 159.516 24.4219C159.607 24.8229 159.889 25.0326 160.363 25.0508L166.023 25.1602C166.279 25.1602 166.525 25.1784 166.762 25.2148C168.767 25.4701 169.77 26.5182 169.77 28.3594C169.77 28.8333 169.633 29.2891 169.359 29.7266C168.484 31.1302 166.552 31.832 163.562 31.832C162.323 31.832 161.266 31.668 160.391 31.3398C159.096 30.8477 158.449 30.1094 158.449 29.125C158.449 28.5781 158.686 28.0221 159.16 27.457C158.504 26.9102 158.167 26.1992 158.148 25.3242C158.148 24.9596 158.221 24.5951 158.367 24.2305C158.786 23.2643 159.534 22.7904 160.609 22.8086H160.637C160.382 22.6628 160.135 22.4987 159.898 22.3164C158.622 21.332 157.984 20.1836 157.984 18.8711C157.984 17.9414 158.258 17.1029 158.805 16.3555C159.789 15.0065 161.339 14.332 163.453 14.332ZM163.562 31.0938C164.419 31.0938 165.203 31.0208 165.914 30.875C167.609 30.5469 168.457 29.9544 168.457 29.0977C168.457 28.9154 168.421 28.7604 168.348 28.6328C168.165 28.3047 167.546 28.1406 166.488 28.1406L160.965 28.0859C160.564 28.0859 160.181 28.013 159.816 27.8672C159.543 28.25 159.406 28.6328 159.406 29.0156C159.406 29.2161 159.452 29.4167 159.543 29.6172C159.999 30.6016 161.339 31.0938 163.562 31.0938ZM177.59 15.043C176.132 15.0977 175.339 16.638 175.211 19.6641L176.961 19.7461C177.69 19.7826 178.237 19.737 178.602 19.6094C179.112 19.4089 179.367 18.8802 179.367 18.0234C179.349 16.0729 178.757 15.0794 177.59 15.043ZM182.703 23.6836C182.594 23.9753 182.448 24.2578 182.266 24.5312C181.336 26.026 179.805 26.7734 177.672 26.7734C176.469 26.7734 175.393 26.5273 174.445 26.0352C172.458 24.9961 171.465 23.1549 171.465 20.5117C171.465 18.8893 171.902 17.5312 172.777 16.4375C173.926 15.0339 175.53 14.332 177.59 14.332C178.72 14.332 179.732 14.5234 180.625 14.9062C182.211 15.6172 183.004 16.7474 183.004 18.2969C183.004 18.6068 182.949 18.8893 182.84 19.1445C182.366 20.1654 180.661 20.6302 177.727 20.5391L175.211 20.457C175.229 21.5143 175.32 22.4258 175.484 23.1914C175.904 25.0508 176.842 25.9805 178.301 25.9805C178.757 25.9805 179.203 25.8984 179.641 25.7344C180.734 25.3333 181.536 24.5768 182.047 23.4648L182.703 23.6836Z" fill="#28574E"/>
</svg>
