<svg width="30" height="30" viewBox="0 0 30 30" fill="none" xmlns="http://www.w3.org/2000/svg">
<path fill-rule="evenodd" clip-rule="evenodd" d="M11.0158 1.94424C12.8673 -0.648081 16.7201 -0.648081 18.5719 1.94424L18.8667 2.35695C19.1925 2.81318 19.7397 3.05748 20.2968 2.99557L21.6108 2.84957C24.568 2.52101 27.0666 5.01966 26.738 7.97675L26.5921 9.29071C26.5302 9.84793 26.7744 10.3951 27.2306 10.721L27.6434 11.0158C30.2356 12.8673 30.2356 16.7201 27.6434 18.5719L27.2306 18.8667C26.7744 19.1925 26.5302 19.7397 26.5921 20.2968L26.738 21.6108C27.0666 24.568 24.568 27.0666 21.6108 26.738L20.2968 26.5921C19.7397 26.5302 19.1925 26.7744 18.8667 27.2306L18.5719 27.6434C16.7201 30.2356 12.8675 30.2356 11.0158 27.6434L10.721 27.2306C10.3951 26.7744 9.84793 26.5302 9.2907 26.5921L7.97675 26.738C5.01966 27.0666 2.52101 24.568 2.84957 21.6108L2.99557 20.2968C3.05748 19.7397 2.81318 19.1925 2.35695 18.8667L1.94424 18.5719C-0.648081 16.7201 -0.648081 12.8675 1.94424 11.0158L2.35695 10.721C2.81318 10.3951 3.05748 9.84793 2.99557 9.2907L2.84957 7.97675C2.52101 5.01966 5.01966 2.52101 7.97675 2.84957L9.29071 2.99557C9.84793 3.05748 10.3951 2.81318 10.721 2.35695L11.0158 1.94424ZM20.531 10.6042C21.1353 11.2086 21.1353 12.1886 20.531 12.7929L14.6208 18.7031C13.8617 19.4624 12.6307 19.4624 11.8716 18.7031L9.05662 15.8881C8.45224 15.2838 8.45224 14.3038 9.05662 13.6995C9.66101 13.0951 10.6409 13.0951 11.2453 13.6995L13.2462 15.7004L18.3424 10.6042C18.9467 9.99986 19.9266 9.99986 20.531 10.6042Z" fill="#28574E"/>
</svg>
